<svg xmlns="http://www.w3.org/2000/svg" class="svg-icon" version="1.1" viewBox="0 0 1024 1024" style="width:1em;height:1em;vertical-align:middle;fill:currentColor;overflow:hidden"><path d="M369.92 180.48A42.666667 42.666667 0 0 0 409.6 170.666667h217.6l-54.186667 202.24a42.666667 42.666667 0 0 0 7.253334 37.12 42.666667 42.666667 0 0 0 33.706666 16.64H768l-48.213333 52.906666a42.666667 42.666667 0 0 0 2.986666 60.16 42.666667 42.666667 0 0 0 28.586667 11.093334 42.666667 42.666667 0 0 0 31.573333-14.08L896 412.586667A42.666667 42.666667 0 0 0 863.146667 341.333333h-193.706667L725.333333 139.093333a42.666667 42.666667 0 0 0-7.68-37.12A42.666667 42.666667 0 0 0 682.666667 85.333333H384a42.666667 42.666667 0 0 0-42.666667 31.573334V128a42.666667 42.666667 0 0 0 28.586667 52.48z m554.666667 685.226667l-768-768a42.666667 42.666667 0 0 0-58.88 60.586666L282.026667 341.333333l-53.76 202.24a42.666667 42.666667 0 0 0 7.68 37.12 42.666667 42.666667 0 0 0 33.706666 16.64h163.84l-77.226666 287.573334a42.666667 42.666667 0 0 0 20.906666 48.64 42.666667 42.666667 0 0 0 20.48 5.12 42.666667 42.666667 0 0 0 31.573334-14.08l206.933333-227.84 229.546667 229.546666a42.666667 42.666667 0 0 0 60.586666 0 42.666667 42.666667 0 0 0 0-60.586666zM325.12 512l26.88-99.84L451.84 512z m159.146667 225.28l42.666666-151.893333 51.2 50.773333z"/></svg>